<svg width="95.5mm" height="65.5mm" viewBox="0 0 95.5 65.5" xmlns="http://www.w3.org/2000/svg"><defs><filter style="color-interpolation-filters:sRGB" id="a" x="-.062" y="-.095" width="1.124" height="1.191"><feGaussianBlur stdDeviation="2.188"/></filter></defs><path style="color:#000;overflow:visible;mix-blend-mode:normal;fill:#000;fill-opacity:1;fill-rule:evenodd;stroke:none;stroke-width:6;stroke-linejoin:round;stroke-miterlimit:4;stroke-dasharray:none;stroke-opacity:1;filter:url(#a);stop-color:#000" d="M1.058 1.058h85v55h-85z" transform="translate(4.192 4.192)"/><path style="color:#000;overflow:visible;fill:#ffdef1;fill-opacity:1;fill-rule:evenodd;stroke:none;stroke-width:6;stroke-linejoin:miter;stroke-miterlimit:4;stroke-dasharray:none;stroke-opacity:1;stop-color:#000" d="M0 0h85v55H0z" transform="translate(4.192 4.192)"/><path style="color:#000;overflow:visible;fill:#7e004a;fill-opacity:1;fill-rule:evenodd;stroke-width:.731993;stroke-linejoin:round;stroke-miterlimit:10.433;stop-color:#000" d="m78.356 10.59-1.674 1.675 1.674 1.673 1.673-1.674zm1.97 1.972-1.673 1.673 1.673 1.674L82 14.235zm-3.94 0-1.674 1.673 1.673 1.674 1.674-1.674zm1.97 1.97-1.674 1.674 1.674 1.673 1.673-1.673z" transform="translate(4.192 4.192)"/><path style="-inkscape-font-specification:'Montserrat Thin, Normal';font-family:'Montserrat Thin';font-size:10.5833px;letter-spacing:0;stroke-width:.264583;word-spacing:0;fill:#444;fill-opacity:1" d="M50.46 10.386c-.713 0-1.358.163-1.937.487a3.57 3.57 0 0 0-1.441 1.482c-.017.03.003-.008-.025.047s-.092.19-.13.287l-2.23 4.894-2.38-5.228h-.244l2.518 5.471h.212l1.873-4.069c-.01.12-.016.241-.016.365 0 .706.166 1.344.498 1.916a3.582 3.582 0 0 0 1.365 1.333 3.89 3.89 0 0 0 1.937.487c.494 0 .96-.081 1.397-.243a3.085 3.085 0 0 0 1.08-.669c.084.19.212.356.384.5.345.274.822.412 1.428.412.501 0 .928-.106 1.281-.318.36-.211.628-.504.804-.878v1.164h.221v-2.942c0-.727.183-1.298.55-1.715.367-.423.879-.635 1.535-.635h.063v-.21c-.543 0-.998.126-1.365.38-.367.247-.628.603-.783 1.069v-1.418h-.212v.885a1.49 1.49 0 0 0-.305-.42c-.332-.331-.815-.497-1.45-.497-.41 0-.8.074-1.175.222a2.724 2.724 0 0 0-.952.593l.148.148a2.73 2.73 0 0 1 .878-.55 2.913 2.913 0 0 1 1.112-.212c.571 0 1.001.145 1.29.434.297.29.445.72.445 1.291v.603H54.76c-.685 0-1.182.138-1.492.413-.303.268-.455.62-.455 1.058.009.143.03.284.052.425-.628.6-1.439.91-2.405.91a3.67 3.67 0 0 1-1.831-.467 3.482 3.482 0 0 1-1.291-1.27 3.564 3.564 0 0 1-.466-1.8c.007-.62.164-1.174.43-1.722l.036-.066c.318-.543.748-.97 1.29-1.28a3.66 3.66 0 0 1 1.832-.466c.974 0 1.771.296 2.392.89l.127-.149a2.962 2.962 0 0 0-1.122-.698 3.928 3.928 0 0 0-1.397-.244zm4.29 4.668h2.084v1.206c-.374.931-1.069 1.397-2.085 1.397-.543 0-.966-.12-1.27-.36-.303-.24-.454-.568-.454-.984 0-.388.137-.695.412-.92.282-.227.72-.34 1.312-.34z" transform="translate(4.192 4.192)"/><path d="M63.12 9.973v7.853h-.212v-1.672a2.512 2.512 0 0 1-.931 1.249 2.59 2.59 0 0 1-1.514.455c-.494 0-.945-.116-1.354-.35a2.585 2.585 0 0 1-.953-.994c-.233-.423-.35-.9-.35-1.429s.117-1.002.35-1.418c.233-.423.55-.751.953-.984.409-.24.86-.36 1.354-.36.565 0 1.066.155 1.503.466.445.303.759.712.942 1.227V9.973zm-2.657 7.684c.459 0 .875-.11 1.25-.328a2.32 2.32 0 0 0 .877-.91c.212-.395.318-.84.318-1.334 0-.494-.106-.935-.318-1.323a2.23 2.23 0 0 0-.878-.91 2.428 2.428 0 0 0-1.249-.328c-.458 0-.875.11-1.248.328a2.23 2.23 0 0 0-.879.91 2.718 2.718 0 0 0-.317 1.323c0 .494.105.939.317 1.334.212.388.505.691.879.91.373.219.79.328 1.248.328zm8.97-2.032h-1.651v2.201h-.212v-2.201h-4.286v-.159l4.17-5.048h.254l-4.139 5.006h4.001v-1.937h.212v1.937h1.65z" style="-inkscape-font-specification:'Montserrat Thin, Normal';font-family:'Montserrat Thin';font-size:10.5833px;letter-spacing:0;stroke-width:.264583;word-spacing:0;fill:#444;fill-opacity:1" transform="translate(4.192 4.192)"/><path d="M68.001 13.916h2.646v.201h-2.646z" style="-inkscape-font-specification:'Montserrat Thin, Normal';font-family:'Montserrat Thin';font-size:10.5833px;letter-spacing:0;stroke-width:.264583;word-spacing:0;fill:#444;fill-opacity:1" transform="translate(4.192 4.192)"/><path style="-inkscape-font-specification:'Montserrat Thin, Normal';font-family:'Montserrat Thin';font-size:10.5833px;letter-spacing:0;stroke-width:.264582735417;word-spacing:0;fill:#444;fill-opacity:1" d="M70.866 11.159v1.196h-1.058v.2h1.058v3.959c0 .41.113.737.339.984.233.24.553.32.984.36.431.04.703.033 1.248.017.545-.017 1.168-.144 1.514-.398.345-.261.518-.607.518-1.037 0-.332-.088-.59-.265-.773a1.517 1.517 0 0 0-.645-.412A8.662 8.662 0 0 0 73.533 15a7.478 7.478 0 0 1-.953-.222 1.481 1.481 0 0 1-.603-.36c-.163-.169-.244-.398-.244-.687 0-.36.141-.65.424-.868.289-.226.72-.339 1.29-.339.318 0 .626.046.922.138.296.091.55.222.761.391l.128-.17a2.26 2.26 0 0 0-.805-.401 3.287 3.287 0 0 0-1.005-.159c-.186 0-.358.012-.518.035v-.003h-1.853v-1.196zm.212 1.397h1.196a1.477 1.477 0 0 0-.276.18c-.325.268-.487.6-.487.995 0 .345.088.617.265.814.183.19.405.332.666.424.268.085.618.166 1.048.243.403.078.716.155.942.233.233.07.427.187.582.35.163.154.244.37.244.645 0 .38-.148.68-.445.9-.194.137-.522.278-1.364.332-.912.059-1.764.034-2.074-.306-.208-.23-.297-.555-.297-.905z" transform="translate(4.192 4.192)"/><path d="M4.917 30.409h-.982v-.466h2.514v.466h-.982v2.498h-.55z" style="font-size:4.23333px;font-family:'Montserrat SemiBold';-inkscape-font-specification:'Montserrat SemiBold, Normal';letter-spacing:0;word-spacing:0;stroke-width:.264583px;fill:#444;fill-opacity:1" transform="translate(4.192 4.192)"/><path d="m8.79 30.646-1.058 2.443q-.148.368-.36.516-.212.153-.512.153-.17 0-.335-.056-.165-.055-.27-.152l.211-.39q.076.073.178.115.106.042.212.042.14 0 .228-.072.093-.072.17-.241l.038-.089-.987-2.269h.55l.712 1.672.715-1.672zm1.584-.026q.33 0 .588.145.262.143.41.406.149.262.149.605 0 .343-.148.61-.149.262-.411.406-.258.144-.588.144-.458 0-.724-.305v1.097h-.53v-3.082h.504v.296q.132-.16.322-.241.195-.08.428-.08zm-.06 1.863q.292 0 .479-.194.19-.195.19-.513 0-.317-.19-.512-.187-.195-.479-.195-.19 0-.343.09-.152.084-.24.245-.09.16-.09.372t.09.373q.088.16.24.25.153.084.343.084zm3.836-.694q0 .055-.009.157h-1.774q.047.25.242.398.199.144.49.144.373 0 .615-.246l.283.326q-.152.182-.385.275-.233.093-.525.093-.372 0-.656-.148-.284-.148-.44-.41-.153-.267-.153-.602 0-.33.148-.592.153-.267.42-.415.266-.148.6-.148.33 0 .59.148.262.144.406.41.148.263.148.61zm-1.143-.745q-.254 0-.432.152-.174.149-.212.398h1.283q-.034-.245-.207-.398-.174-.152-.432-.152zm2.62 1.905q-.343 0-.664-.097-.318-.098-.504-.259l.19-.427q.182.144.445.237.266.089.533.089.33 0 .491-.106.165-.106.165-.28 0-.126-.093-.207-.089-.085-.228-.131-.14-.047-.381-.106-.34-.08-.55-.16-.208-.081-.36-.25-.149-.174-.149-.466 0-.246.131-.445.136-.203.403-.322.27-.118.66-.118.271 0 .533.068.263.067.453.194l-.173.428q-.195-.114-.407-.174-.211-.059-.41-.059-.326 0-.487.11-.157.11-.157.292 0 .127.09.208.092.08.232.127.14.046.381.106.33.076.542.16.212.08.36.25.152.17.152.457 0 .246-.135.445-.132.199-.402.317-.271.119-.66.119zm2.731-.013q-.352 0-.631-.148-.28-.148-.436-.41-.157-.267-.157-.602 0-.334.157-.597.156-.262.432-.41.279-.148.635-.148.334 0 .584.135.254.136.38.39l-.406.237q-.097-.157-.245-.233-.144-.08-.318-.08-.296 0-.49.194-.195.19-.195.512t.19.517q.195.19.495.19.174 0 .318-.076.148-.08.245-.237l.407.237q-.131.254-.385.394-.25.135-.58.135zm1.926-1.96q.228-.355.804-.355v.503q-.068-.012-.123-.012-.309 0-.482.182-.174.178-.174.516v1.097h-.529v-2.261h.504zm1.253-.33h.529v2.26h-.53zm.267-.373q-.144 0-.242-.088-.097-.094-.097-.229t.097-.224q.098-.094.242-.094.143 0 .24.09.098.084.098.215 0 .14-.097.237-.093.093-.241.093zm2.209.347q.33 0 .589.145.262.143.41.406.149.262.149.605 0 .343-.149.61-.148.262-.41.406-.258.144-.589.144-.457 0-.724-.305v1.097h-.529v-3.082h.504v.296q.131-.16.322-.241.195-.08.427-.08zm-.059 1.863q.292 0 .478-.194.191-.195.191-.513 0-.317-.19-.512-.187-.195-.479-.195-.19 0-.343.09-.152.084-.241.245-.089.16-.089.372t.089.373q.089.16.241.25.153.084.343.084zm3.069.301q-.093.076-.228.114-.132.038-.28.038-.372 0-.575-.194-.204-.195-.204-.568v-1.088h-.372v-.423h.372v-.517h.53v.517h.605v.423h-.606v1.076q0 .165.08.254.081.084.234.084.178 0 .296-.093zm3.721-2.138-.97 2.26h-.545l-.97-2.26h.55l.703 1.676.724-1.676zm1.732 2.303q-.449 0-.813-.195-.36-.199-.567-.546-.204-.347-.204-.783 0-.436.208-.783.207-.347.567-.542.364-.2.813-.2.364 0 .665.128.3.127.508.368l-.356.335q-.322-.347-.792-.347-.304 0-.546.135-.241.131-.376.368-.136.237-.136.538 0 .3.136.538.135.237.376.372.242.131.546.131.47 0 .792-.351l.356.339q-.208.24-.513.368-.3.127-.664.127zm2.497-2.329q.5 0 .762.242.267.237.267.72v1.325h-.5v-.276q-.097.149-.279.229-.178.076-.432.076t-.444-.084q-.19-.09-.296-.242-.102-.156-.102-.351 0-.305.224-.487.229-.186.716-.186h.584v-.034q0-.237-.144-.364-.14-.127-.42-.127-.19 0-.376.06-.182.058-.309.164l-.207-.385q.177-.135.427-.207.25-.072.53-.072zm-.072 1.931q.2 0 .352-.089.156-.093.22-.262v-.263h-.546q-.457 0-.457.3 0 .145.114.23.114.084.317.084zm2.282-1.575q.229-.355.805-.355v.503q-.068-.012-.123-.012-.31 0-.483.182-.173.178-.173.516v1.097h-.53v-2.261h.504zm3.447-1.211v3.142h-.509v-.292q-.131.16-.326.24-.19.081-.423.081-.326 0-.589-.144-.258-.144-.406-.406-.148-.267-.148-.61 0-.343.148-.605.148-.263.406-.406.263-.144.589-.144.224 0 .41.076.187.076.318.228v-1.16zm-1.195 2.718q.19 0 .343-.084.153-.09.242-.25.088-.161.088-.373 0-.211-.088-.372-.09-.161-.242-.246-.152-.089-.343-.089-.19 0-.343.09-.152.084-.24.245-.09.16-.09.372t.09.373q.088.16.24.25.153.084.343.084zm4.327-2.54q.385 0 .669.127.288.127.44.364.152.237.152.563 0 .322-.152.563-.152.237-.44.364-.284.127-.67.127h-.668v.856h-.55v-2.964zm-.026 1.643q.36 0 .546-.153.187-.152.187-.436 0-.283-.187-.436-.186-.152-.546-.152h-.643v1.177zm2.629-.966q.5 0 .762.242.267.237.267.72v1.325h-.5v-.276q-.097.149-.279.229-.178.076-.432.076t-.444-.084q-.19-.09-.297-.242-.101-.156-.101-.351 0-.305.224-.487.229-.186.716-.186h.584v-.034q0-.237-.144-.364-.14-.127-.42-.127-.19 0-.376.06-.182.058-.309.164l-.207-.385q.177-.135.427-.207.25-.072.53-.072zm-.072 1.931q.2 0 .352-.089.156-.093.22-.262v-.263h-.546q-.457 0-.457.3 0 .145.114.23.114.084.317.084zm2.282-1.575q.229-.355.804-.355v.503q-.067-.012-.122-.012-.31 0-.483.182-.174.178-.174.516v1.097h-.529v-2.261h.504zm1.96 1.96q-.275 0-.538-.072-.262-.072-.419-.182l.204-.402q.152.102.364.165.216.06.423.06.474 0 .474-.25 0-.119-.123-.165-.118-.047-.385-.09-.28-.042-.457-.097-.174-.055-.305-.19-.127-.14-.127-.385 0-.322.267-.513.27-.194.728-.194.233 0 .466.055.232.05.38.14l-.203.402q-.287-.17-.647-.17-.233 0-.356.072-.118.068-.118.182 0 .127.127.182.13.051.402.098.27.042.444.097t.297.186q.127.131.127.373 0 .317-.276.508-.275.19-.749.19zm3.607-1.147q0 .055-.009.157H52.36q.046.25.24.398.2.144.492.144.373 0 .614-.246l.283.326q-.152.182-.385.275-.233.093-.525.093-.372 0-.656-.148-.284-.148-.44-.41-.153-.267-.153-.602 0-.33.149-.592.152-.267.419-.415.266-.148.6-.148.331 0 .59.148.262.144.406.41.148.263.148.61zm-1.143-.745q-.254 0-.432.152-.173.149-.212.398h1.283q-.034-.245-.207-.398-.174-.152-.432-.152zm2.155-.068q.228-.355.804-.355v.503q-.068-.012-.123-.012-.309 0-.482.182-.174.178-.174.516v1.097h-.53v-2.261h.505z" style="font-size:4.23333px;font-family:'Montserrat SemiBold';-inkscape-font-specification:'Montserrat SemiBold, Normal';letter-spacing:0;word-spacing:0;stroke-width:.264583px;fill:#444;fill-opacity:1" transform="translate(4.192 4.192)"/><path d="M4.434 34.917h1.173q.461 0 .817.19.36.191.559.53.199.334.199.762 0 .427-.2.766-.198.334-.558.525-.356.19-.817.19H4.434zm1.156 2.769q.41 0 .724-.161.313-.165.482-.457.17-.293.17-.67 0-.376-.17-.668-.169-.292-.482-.453-.313-.165-.724-.165h-.94v2.574zm4.14-.86h-1.9q.008.258.13.462.123.199.33.309.212.11.475.11.216 0 .398-.076.186-.08.309-.233l.123.14q-.144.173-.364.266-.216.093-.47.093-.33 0-.589-.144-.258-.144-.406-.398-.144-.254-.144-.58 0-.321.135-.575.14-.259.381-.402.242-.144.542-.144.3 0 .538.144.241.14.377.393.14.254.14.576zm-1.05-.986q-.233 0-.419.106-.186.101-.3.292-.11.186-.127.423h1.693q-.013-.237-.127-.423t-.3-.292q-.187-.106-.42-.106zm2.27 2.057q-.267 0-.509-.08-.241-.08-.376-.203l.097-.17q.135.115.347.19.216.077.449.077.334 0 .49-.11.162-.11.162-.305 0-.14-.09-.22-.084-.08-.21-.119-.128-.038-.352-.08-.263-.047-.424-.102-.16-.055-.275-.177-.114-.123-.114-.339 0-.263.216-.432.22-.173.622-.173.212 0 .42.059.207.06.338.156l-.097.17q-.136-.098-.31-.148-.173-.051-.355-.051-.31 0-.466.114-.156.114-.156.3 0 .149.089.234.088.08.215.122.132.038.365.085.258.047.414.102.161.05.271.169.11.118.11.326 0 .275-.228.44-.229.165-.644.165zm1.464-2.227h.212v2.21h-.212zm.106-.537q-.072 0-.123-.047-.05-.05-.05-.122t.05-.123q.05-.051.123-.051.072 0 .123.05.05.047.05.12 0 .071-.05.122-.051.05-.123.05zm2.989.537v1.973q0 .55-.267.813-.267.263-.804.263-.305 0-.576-.094-.271-.093-.436-.258l.114-.16q.165.152.398.236.233.085.495.085.44 0 .652-.212.212-.207.212-.647v-.373q-.136.241-.377.373-.241.13-.542.13-.309 0-.563-.135-.25-.14-.393-.385-.144-.245-.144-.554 0-.31.144-.555.144-.245.393-.38.254-.136.563-.136.305 0 .55.135.246.136.377.381v-.5zm-1.114 1.94q.258 0 .466-.11.207-.115.322-.314.118-.203.118-.461 0-.259-.118-.458-.115-.199-.322-.309-.208-.114-.466-.114t-.465.114q-.204.11-.322.31-.114.198-.114.457 0 .258.114.461.118.199.322.313.207.11.465.11zm3.091-1.956q.414 0 .656.24.241.242.241.695v1.291h-.212v-1.274q0-.372-.19-.567-.186-.195-.525-.195-.39 0-.614.233-.224.233-.224.626v1.177h-.212v-2.21h.203v.479q.115-.233.339-.364.229-.131.538-.131zm3.64 1.172h-1.9q.008.258.13.462.123.199.33.309.213.11.475.11.216 0 .398-.076.186-.08.309-.233l.123.14q-.144.173-.364.266-.216.093-.47.093-.33 0-.589-.144-.258-.144-.406-.398-.144-.254-.144-.58 0-.321.135-.575.14-.259.381-.402.242-.144.542-.144.3 0 .538.144.241.14.377.393.14.254.14.576zm-1.05-.986q-.232 0-.419.106-.186.101-.3.292-.11.186-.127.423h1.693q-.013-.237-.127-.423t-.3-.292q-.187-.106-.42-.106zm3.674-1.1v3.14h-.207v-.52q-.13.258-.368.398-.237.14-.537.14-.31 0-.56-.145-.25-.144-.393-.398-.14-.254-.14-.58 0-.326.14-.58.144-.258.394-.397.25-.144.559-.144.296 0 .529.14.237.139.372.389v-1.444zm-1.1 2.967q.254 0 .453-.119.203-.118.318-.33.118-.212.118-.483 0-.27-.118-.482-.115-.212-.318-.33-.199-.119-.453-.119t-.457.119q-.199.118-.317.33-.115.211-.115.482t.115.483q.118.212.317.33.203.119.457.119zm3.747-2.803q-.415 0-.415.445v.322h.707v.182h-.703v2.027h-.212v-2.027h-.406v-.182h.406v-.34q0-.279.161-.444.161-.165.453-.165.127 0 .242.038.118.034.194.106l-.084.161q-.136-.123-.343-.123zm1.549 2.993q-.313 0-.567-.144-.25-.144-.394-.398-.144-.258-.144-.58 0-.321.144-.575.144-.259.394-.402.254-.144.567-.144.313 0 .563.144.254.143.398.402.144.254.144.575 0 .322-.144.58-.144.254-.398.398-.25.144-.563.144zm0-.19q.254 0 .453-.119.203-.118.318-.33.118-.212.118-.483 0-.27-.118-.482-.115-.212-.318-.33-.199-.119-.453-.119t-.457.119q-.2.118-.318.33-.114.211-.114.482t.114.483q.119.212.318.33.203.119.457.119zm1.964-1.554q.102-.241.318-.368.216-.131.525-.131v.207l-.051-.004q-.368 0-.576.233-.207.228-.207.639v1.151h-.212v-2.21h.203zm3.65 1.587q-.08.077-.204.12-.118.037-.25.037-.287 0-.444-.156-.157-.161-.157-.445v-1.443H32.1v-.182h.406v-.483h.212v.483h.703v.182h-.703v1.422q0 .216.102.33.105.11.309.11.207 0 .343-.123zm2.32-2.07-1.135 2.51q-.127.293-.297.416-.165.123-.393.123-.153 0-.288-.051-.131-.051-.224-.148l.105-.161q.17.173.411.173.16 0 .275-.089.114-.089.212-.304l.118-.267-.994-2.201h.224l.885 1.976.884-1.976zm1.57-.016q.309 0 .559.144.25.143.39.397.143.254.143.58 0 .326-.144.585-.14.254-.39.398-.25.14-.558.14-.292 0-.53-.136-.236-.14-.368-.385v1.325h-.211V35.67h.203v.52q.131-.254.368-.393.242-.144.538-.144zm-.013 2.053q.254 0 .457-.119.204-.118.318-.33.118-.212.118-.483 0-.27-.118-.482-.114-.212-.318-.33-.203-.119-.457-.119t-.457.119q-.199.118-.317.33-.115.211-.115.482t.115.483q.118.212.317.33.203.119.457.119zm3.628-.881h-1.9q.008.258.13.462.123.199.33.309.213.11.475.11.216 0 .398-.076.186-.08.309-.233l.123.14q-.144.173-.364.266-.216.093-.47.093-.33 0-.589-.144-.258-.144-.406-.398-.144-.254-.144-.58 0-.321.135-.575.14-.259.381-.402.242-.144.542-.144.3 0 .538.144.241.14.377.393.14.254.14.576zm-1.05-.986q-.233 0-.419.106-.186.101-.3.292-.11.186-.127.423h1.693q-.013-.237-.127-.423t-.3-.292q-.187-.106-.42-.106zm3.357 2.057q-.266 0-.508-.08-.241-.08-.376-.203l.097-.17q.135.115.347.19.216.077.449.077.334 0 .49-.11.162-.11.162-.305 0-.14-.09-.22-.084-.08-.21-.119-.128-.038-.352-.08-.263-.047-.424-.102-.16-.055-.275-.177-.114-.123-.114-.339 0-.263.216-.432.22-.173.622-.173.212 0 .42.059.207.06.338.156l-.097.17q-.136-.098-.31-.148-.173-.051-.355-.051-.31 0-.466.114-.156.114-.156.3 0 .149.089.234.088.08.215.122.132.038.365.085.258.047.414.102.161.05.271.169.11.118.11.326 0 .275-.228.44-.229.165-.644.165zm2.21-2.243q.41 0 .63.211.221.208.221.614v1.401h-.203v-.393q-.106.194-.31.304-.202.106-.486.106-.368 0-.584-.173-.212-.174-.212-.458 0-.275.195-.444.199-.174.63-.174h.758v-.177q0-.31-.169-.47-.165-.161-.487-.161-.22 0-.423.076-.2.076-.339.203l-.106-.152q.165-.148.398-.229.233-.084.487-.084zm-.118 2.07q.275 0 .465-.127.195-.127.292-.369v-.414h-.753q-.326 0-.474.118-.144.119-.144.326 0 .216.16.343.161.123.454.123zm2.506-2.82q-.415 0-.415.445v.322h.707v.182h-.703v2.027h-.212v-2.027h-.406v-.182h.406v-.34q0-.279.161-.444.161-.165.453-.165.127 0 .242.038.118.034.194.106l-.084.161q-.136-.123-.343-.123zm2.552 1.922h-1.9q.008.258.13.462.124.199.331.309.212.11.474.11.216 0 .398-.076.186-.08.31-.233l.122.14q-.144.173-.364.266-.216.093-.47.093-.33 0-.588-.144-.259-.144-.407-.398-.144-.254-.144-.58 0-.321.136-.575.14-.259.38-.402.242-.144.543-.144.3 0 .537.144.241.14.377.393.14.254.14.576zm-1.05-.986q-.232 0-.419.106-.186.101-.3.292-.11.186-.127.423h1.693q-.012-.237-.127-.423-.114-.186-.3-.292-.187-.106-.42-.106zm2.808 1.9q-.081.077-.204.12-.119.037-.25.037-.288 0-.444-.156-.157-.161-.157-.445v-1.443h-.406v-.182h.406v-.483h.212v.483h.703v.182h-.703v1.422q0 .216.101.33.106.11.31.11.207 0 .342-.123zm2.32-2.07-1.135 2.51q-.127.293-.297.416-.165.123-.393.123-.153 0-.288-.051-.132-.051-.225-.148l.106-.161q.17.173.41.173.162 0 .276-.089.114-.089.212-.304l.118-.267-.995-2.201h.225l.884 1.976.885-1.976zM5.992 46.033l-.707-.99q-.156.02-.288.02h-.846v.97h-.216V43.07h1.062q.56 0 .877.267.317.262.317.732 0 .351-.182.593-.178.237-.512.334l.74 1.037zm-.995-1.16q.474 0 .724-.207.25-.212.25-.597t-.25-.593q-.25-.211-.724-.211h-.846v1.608zm2.202-1.608v1.265h1.579v.195h-1.58v1.308h-.215V43.07h1.98v.195zm3.67 2.789q-.436 0-.788-.194-.347-.195-.55-.538-.199-.343-.199-.77 0-.428.2-.77.202-.344.55-.539.35-.194.787-.194.322 0 .593.106.27.101.461.304l-.135.14q-.356-.351-.91-.351-.373 0-.678.169-.305.17-.478.47-.174.296-.174.665 0 .368.174.668.173.297.478.466.305.17.677.17.55 0 .91-.356l.136.14q-.19.203-.466.309-.27.105-.588.105zm3.768-1.774q.292 0 .516.11.229.107.351.31.123.199.123.461 0 .267-.127.47-.127.203-.351.313-.225.11-.508.11-.576 0-.885-.39-.305-.393-.305-1.095 0-.492.161-.83.165-.343.462-.517.296-.173.694-.173.419 0 .673.152l-.089.174q-.212-.136-.584-.136-.512 0-.809.335-.292.33-.292.96 0 .195.026.356.088-.288.342-.448.259-.161.602-.161zm-.005 1.588q.347 0 .563-.19.216-.195.216-.513 0-.317-.216-.508-.216-.19-.588-.19-.237 0-.428.093-.186.093-.292.254-.101.16-.101.36 0 .178.097.339.102.16.292.258.19.097.457.097zm2.269-1.507q.491.013.745.241.259.225.259.597 0 .25-.119.445-.118.19-.355.3-.233.11-.563.11-.322 0-.606-.105-.283-.11-.44-.293l.11-.165q.144.161.39.263.25.101.546.101.393 0 .605-.173.212-.178.212-.483 0-.309-.216-.482-.216-.174-.648-.174h-.186v-.157l.876-1.121h-1.58v-.195h1.86v.152zm2.142-.051q.648 0 .94.229.292.224.292.64 0 .253-.118.452-.114.195-.347.31-.233.113-.572.113-.322 0-.605-.11-.28-.11-.436-.288l.11-.165q.14.161.385.263.25.101.542.101.398 0 .61-.182.215-.182.215-.486 0-.335-.245-.508-.241-.174-.817-.174h-.601l.156-1.435h1.57v.195h-1.388l-.114 1.045zm2.799 1.744q-.339 0-.606-.182-.262-.186-.41-.525-.144-.338-.144-.795 0-.458.144-.796.148-.339.41-.521.267-.186.606-.186.338 0 .6.186.267.182.411.52.149.34.149.797t-.149.795q-.144.34-.41.525-.263.182-.601.182zm0-.199q.28 0 .49-.152.217-.157.335-.449.119-.296.119-.702 0-.407-.119-.699-.118-.296-.334-.449-.212-.156-.491-.156-.28 0-.496.156-.211.153-.33.45-.118.291-.118.698 0 .406.118.702.119.292.33.449.216.152.496.152zm3.805.195q-.321 0-.575-.144-.254-.144-.398-.398-.144-.258-.144-.58 0-.326.144-.58.144-.258.398-.398.254-.143.575-.143.267 0 .483.105.22.102.356.3l-.157.115q-.119-.165-.296-.245-.174-.085-.386-.085-.258 0-.465.119-.203.114-.322.326-.114.211-.114.486 0 .276.114.487.119.212.322.33.207.115.465.115.212 0 .386-.08.177-.085.296-.25l.157.114q-.136.199-.356.305-.216.101-.483.101zm2.299 0q-.313 0-.567-.144-.25-.144-.394-.398-.144-.258-.144-.58 0-.321.144-.575.144-.259.394-.403.254-.143.567-.143.313 0 .563.143.254.144.398.403.144.254.144.575 0 .322-.144.58-.144.254-.398.398-.25.144-.563.144zm0-.19q.254 0 .453-.119.203-.118.318-.33.118-.212.118-.483 0-.27-.118-.482-.115-.212-.318-.33-.199-.119-.453-.119t-.457.119q-.2.118-.318.33-.114.211-.114.482t.114.483q.119.212.318.33.203.119.457.119zm4.513-2.053q.41 0 .643.24.237.242.237.695v1.291h-.211V44.76q0-.373-.182-.567-.182-.195-.508-.195-.373 0-.593.233-.216.233-.216.626v1.177h-.212V44.76q0-.373-.182-.567-.182-.195-.508-.195-.372 0-.592.233-.216.233-.216.626v1.177h-.212v-2.21h.203v.475q.11-.233.326-.36.22-.131.521-.131.3 0 .508.135.212.135.3.398.11-.246.343-.39.238-.143.55-.143zm2.861 0q.31 0 .56.143.25.144.389.398.144.254.144.58 0 .326-.144.585-.14.254-.39.397-.25.14-.558.14-.293 0-.53-.135-.237-.14-.368-.386v1.326h-.212v-3.032h.204v.521q.13-.254.368-.394.241-.143.538-.143zm-.012 2.053q.254 0 .457-.119.203-.118.318-.33.118-.212.118-.483 0-.27-.118-.482-.115-.212-.318-.33-.203-.119-.457-.119t-.457.119q-.2.118-.318.33-.114.211-.114.482t.114.483q.119.212.318.33.203.119.457.119zm1.761-2.968h.212v3.141h-.212zm1.105.931h.211v2.21h-.211zm.106-.537q-.072 0-.123-.047-.05-.05-.05-.123 0-.071.05-.122.05-.051.123-.051.072 0 .122.05.051.047.051.12 0 .071-.05.122-.051.05-.123.05zm1.744.521q.41 0 .63.211.22.208.22.614v1.401h-.203v-.393q-.105.194-.309.304-.203.106-.486.106-.369 0-.585-.173-.211-.174-.211-.458 0-.275.194-.444.2-.174.631-.174h.758v-.177q0-.31-.17-.47-.164-.161-.486-.161-.22 0-.423.076-.2.076-.34.203l-.105-.152q.165-.148.398-.229.233-.084.487-.084zm-.119 2.07q.275 0 .466-.127.195-.127.292-.369v-.415h-.754q-.325 0-.474.119-.144.119-.144.326 0 .216.161.343.161.123.453.123zm2.921-2.07q.415 0 .656.24.242.242.242.695v1.291h-.212V44.76q0-.373-.19-.567-.187-.195-.525-.195-.39 0-.614.233-.225.233-.225.626v1.177h-.211v-2.21h.203v.479q.114-.233.339-.364.228-.131.537-.131zm2.866 2.087q-.08.076-.203.118-.119.038-.25.038-.288 0-.444-.156-.157-.161-.157-.445v-1.444h-.406v-.182h.406v-.482h.212v.482h.702v.182h-.702v1.423q0 .216.101.33.106.11.31.11.207 0 .342-.123zM3.935 48.03h1.172q.462 0 .817.191.36.19.56.53.198.334.198.762 0 .427-.199.766-.199.334-.559.525-.355.19-.817.19H3.935zM5.09 50.8q.411 0 .724-.161.314-.165.483-.458.17-.292.17-.668 0-.377-.17-.67-.17-.291-.483-.452-.313-.165-.724-.165h-.94V50.8zm3.019-2.032q.41 0 .63.211.22.208.22.614v1.401h-.203v-.393q-.105.194-.309.304-.203.106-.486.106-.369 0-.585-.173-.211-.174-.211-.458 0-.275.194-.444.2-.174.631-.174h.758v-.177q0-.31-.17-.47-.164-.161-.486-.161-.22 0-.424.076-.198.076-.338.203l-.106-.152q.165-.148.398-.229.233-.084.487-.084zm-.119 2.07q.275 0 .466-.127.195-.127.292-.369v-.415h-.754q-.326 0-.474.119-.144.119-.144.326 0 .216.161.343.161.123.453.123zm2.938.017q-.08.076-.203.118-.119.038-.25.038-.288 0-.444-.156-.157-.161-.157-.445v-1.444h-.406v-.182h.406v-.482h.212v.482h.702v.182h-.702v1.423q0 .216.101.33.106.11.31.11.207 0 .342-.123zm1.334-2.087q.41 0 .63.211.22.208.22.614v1.401h-.203v-.393q-.105.194-.309.304-.203.106-.487.106-.368 0-.584-.173-.211-.174-.211-.458 0-.275.194-.444.2-.174.631-.174h.758v-.177q0-.31-.17-.47-.165-.161-.486-.161-.22 0-.424.076-.199.076-.338.203l-.106-.152q.165-.148.398-.229.233-.084.487-.084zm-.119 2.07q.275 0 .466-.127.195-.127.292-.369v-.415h-.754q-.326 0-.474.119-.144.119-.144.326 0 .216.161.343.161.123.453.123zm3.806.173q-.322 0-.576-.144-.254-.144-.398-.398-.144-.258-.144-.58 0-.326.144-.58.144-.258.398-.398.254-.143.576-.143.267 0 .482.105.22.102.356.3l-.157.115q-.118-.165-.296-.245-.173-.085-.385-.085-.258 0-.466.119-.203.114-.322.326-.114.211-.114.486t.114.487q.119.212.322.33.208.115.466.115.212 0 .385-.08.178-.085.296-.25l.157.114q-.135.199-.356.305-.215.101-.482.101zm2.299 0q-.314 0-.568-.144-.25-.144-.393-.398-.144-.258-.144-.58 0-.321.144-.575.144-.259.393-.403.254-.143.568-.143.313 0 .563.143.254.144.398.403.143.254.143.575 0 .322-.143.58-.144.254-.398.398-.25.144-.563.144zm0-.19q.254 0 .453-.119.203-.118.317-.33.119-.212.119-.483 0-.27-.119-.482-.114-.212-.317-.33-.2-.119-.453-.119-.254 0-.458.119-.199.118-.317.33-.114.211-.114.482t.114.483q.118.212.317.33.204.119.458.119zm2.84-2.053q.415 0 .656.24.242.242.242.695v1.291h-.212V49.72q0-.373-.19-.567-.187-.195-.526-.195-.389 0-.613.233-.225.233-.225.626v1.177h-.211v-2.21h.203v.479q.114-.233.338-.364.23-.131.538-.131zm2.328 2.243q-.266 0-.508-.08-.24-.08-.376-.203l.097-.17q.136.115.347.19.216.077.449.077.334 0 .491-.11.16-.11.16-.305 0-.14-.088-.22-.085-.08-.212-.119-.127-.038-.351-.08-.263-.047-.423-.102-.161-.055-.276-.177-.114-.123-.114-.34 0-.262.216-.43.22-.174.622-.174.212 0 .42.059.207.06.338.156l-.097.17q-.136-.098-.31-.148-.173-.051-.355-.051-.309 0-.466.114-.156.114-.156.3 0 .149.089.233.089.08.216.123.13.038.364.085.258.046.415.102.16.05.27.169.11.118.11.326 0 .275-.228.44-.229.165-.644.165zm3.4-2.227v2.21h-.203v-.474q-.11.233-.326.364-.216.127-.508.127-.432 0-.678-.241-.245-.241-.245-.694v-1.292h.211v1.275q0 .372.19.567.191.195.539.195.372 0 .588-.233.22-.233.22-.627v-1.177zm3.649-.016q.41 0 .643.24.237.242.237.695v1.291h-.211V49.72q0-.373-.182-.567-.182-.195-.508-.195-.373 0-.593.233-.216.233-.216.626v1.177h-.211V49.72q0-.373-.183-.567-.182-.195-.508-.195-.372 0-.592.233-.216.233-.216.626v1.177h-.212v-2.21h.203v.475q.11-.233.326-.36.22-.131.521-.131.3 0 .508.135.212.135.3.398.11-.246.344-.39.237-.143.55-.143zm3.624 1.172h-1.901q.008.258.131.462.123.199.33.309.212.11.474.11.216 0 .398-.077.187-.08.31-.232l.122.14q-.144.173-.364.266-.216.093-.47.093-.33 0-.588-.144-.258-.144-.407-.398-.144-.254-.144-.58 0-.321.136-.575.14-.259.38-.403.242-.143.543-.143.3 0 .537.143.242.14.377.394.14.254.14.576zm-1.05-.986q-.233 0-.42.106-.186.101-.3.292-.11.186-.127.423h1.693q-.012-.237-.127-.423-.114-.187-.3-.292-.186-.106-.42-.106zm1.913.313q.102-.241.318-.368.216-.131.525-.131v.207l-.051-.004q-.368 0-.576.233-.207.228-.207.639v1.151h-.212v-2.21h.203zm3.218-1.249q-.415 0-.415.445v.321h.707v.182h-.703v2.028h-.212v-2.028h-.406v-.182h.406v-.338q0-.28.161-.445.161-.165.453-.165.127 0 .241.038.119.034.195.106l-.085.161q-.135-.123-.342-.123zm1.062.766h.212v2.21h-.212zm.106-.537q-.072 0-.123-.047-.05-.05-.05-.123 0-.072.05-.122.051-.051.123-.051.072 0 .123.05.05.047.05.12 0 .071-.05.122-.051.05-.123.05zm1.202 1.02q.102-.241.318-.368.216-.131.525-.131v.207l-.051-.004q-.368 0-.576.233-.207.228-.207.639v1.151h-.212v-2.21h.203zm2.007 1.744q-.267 0-.508-.08t-.377-.203l.097-.17q.136.115.348.19.215.077.448.077.335 0 .491-.11.161-.11.161-.305 0-.14-.089-.22-.084-.08-.211-.119-.127-.038-.352-.08-.262-.047-.423-.102-.16-.055-.275-.177-.115-.123-.115-.34 0-.262.216-.43.22-.174.623-.174.211 0 .419.059.207.06.338.156l-.097.17q-.135-.098-.309-.148-.174-.051-.356-.051-.309 0-.465.114-.157.114-.157.3 0 .149.089.233.089.08.216.123.131.038.364.085.258.046.415.102.16.05.27.169.11.118.11.326 0 .275-.228.44-.228.165-.643.165zm2.561-.156q-.08.076-.203.118-.119.038-.25.038-.288 0-.444-.156-.157-.161-.157-.445v-1.444h-.407v-.182h.407v-.482h.212v.482h.702v.182h-.702v1.423q0 .216.101.33.106.11.31.11.207 0 .342-.123z" style="font-size:4.23333px;font-family:'Montserrat Light';-inkscape-font-specification:'Montserrat Light, Normal';letter-spacing:0;word-spacing:0;stroke-width:.264583px;fill:#444;fill-opacity:1" transform="translate(4.192 4.192)"/><path d="M61.004 46.054q-.436 0-.787-.194-.347-.195-.55-.538-.2-.343-.2-.77 0-.428.2-.77.203-.344.55-.539.351-.194.787-.194.322 0 .593.106.27.101.461.304l-.135.14q-.356-.351-.91-.351-.373 0-.678.169-.304.17-.478.47-.173.296-.173.665 0 .368.173.668.174.297.478.466.305.17.678.17.55 0 .91-.356l.135.14q-.19.203-.465.309-.271.105-.589.105zm2.473-.004q-.314 0-.568-.144-.25-.144-.393-.398-.144-.258-.144-.58 0-.321.144-.575.144-.259.393-.403.254-.143.568-.143.313 0 .563.143.254.144.398.403.143.254.143.575 0 .322-.143.58-.144.254-.398.398-.25.144-.563.144zm0-.19q.254 0 .453-.119.203-.118.317-.33.119-.212.119-.483 0-.27-.119-.482-.114-.212-.317-.33-.2-.119-.453-.119-.254 0-.458.119-.199.118-.317.33-.114.211-.114.482t.114.483q.118.212.317.33.204.119.458.119zm2.84-2.053q.415 0 .656.24.242.242.242.695v1.291h-.212V44.76q0-.373-.19-.567-.187-.195-.525-.195-.39 0-.614.233-.225.233-.225.626v1.177h-.211v-2.21h.203v.479q.114-.233.339-.364.228-.131.537-.131zm2.328 2.243q-.266 0-.508-.08-.24-.08-.376-.203l.097-.17q.136.115.347.19.216.077.449.077.334 0 .491-.11.16-.11.16-.305 0-.14-.088-.22-.085-.08-.212-.119-.127-.038-.351-.08-.263-.047-.423-.102-.161-.055-.276-.177-.114-.123-.114-.34 0-.262.216-.43.22-.174.622-.174.212 0 .42.059.207.06.338.156l-.097.17q-.136-.098-.31-.148-.173-.051-.355-.051-.309 0-.466.114-.156.114-.156.3 0 .149.089.233.089.08.216.123.13.038.364.085.258.046.415.102.16.05.27.169.11.118.11.326 0 .275-.228.44-.229.165-.644.165zm1.465-2.227h.212v2.21h-.212zm.106-.537q-.072 0-.123-.047-.05-.05-.05-.123 0-.071.05-.122.051-.051.123-.051.072 0 .123.05.05.047.05.12 0 .071-.05.122-.051.05-.123.05zm1.558 2.764q-.267 0-.508-.08t-.377-.203l.097-.17q.136.115.348.19.216.077.448.077.335 0 .491-.11.161-.11.161-.305 0-.14-.089-.22-.084-.08-.211-.119-.127-.038-.352-.08-.262-.047-.423-.102-.16-.055-.275-.177-.114-.123-.114-.34 0-.262.215-.43.22-.174.623-.174.211 0 .419.059.207.06.339.156l-.098.17q-.135-.098-.309-.148-.173-.051-.355-.051-.31 0-.466.114-.157.114-.157.3 0 .149.09.233.088.08.215.123.131.038.364.085.258.046.415.102.16.05.27.169.11.118.11.326 0 .275-.228.44-.228.165-.643.165zm2.561-.156q-.08.076-.203.118-.119.038-.25.038-.288 0-.444-.156-.157-.161-.157-.445v-1.444h-.406v-.182h.406v-.482h.212v.482h.702v.182h-.702v1.423q0 .216.101.33.106.11.31.11.207 0 .342-.123zm2.375-.914h-1.9q.008.257.13.46.123.2.33.31.212.11.475.11.216 0 .398-.077.186-.08.309-.232l.122.14q-.143.173-.364.266-.216.093-.47.093-.33 0-.588-.144-.258-.144-.406-.398-.144-.254-.144-.58 0-.321.135-.575.14-.259.381-.403.241-.143.542-.143.3 0 .538.143.241.14.376.394.14.254.14.576zm-1.05-.987q-.233 0-.419.106-.186.101-.3.292-.11.186-.128.423h1.694q-.013-.237-.127-.423-.115-.187-.3-.292-.187-.106-.42-.106zm2.79-.186q.415 0 .656.24.241.242.241.695v1.291h-.211V44.76q0-.373-.19-.567-.187-.195-.526-.195-.39 0-.614.233-.224.233-.224.626v1.177h-.212v-2.21h.204v.479q.114-.233.338-.364.229-.131.538-.131zm2.866 2.087q-.08.076-.203.118-.119.038-.25.038-.288 0-.445-.156-.156-.161-.156-.445v-1.444h-.407v-.182h.407v-.482h.211v.482h.703v.182h-.703v1.423q0 .216.102.33.106.11.309.11.207 0 .343-.123zM60.818 50.8v.194h-2.045v-2.963h1.982v.195h-1.766v1.168h1.58v.19h-1.58V50.8zm1.427-2.032q.41 0 .63.211.22.208.22.614v1.401h-.203v-.393q-.105.194-.309.304-.203.106-.486.106-.369 0-.585-.173-.211-.174-.211-.458 0-.275.194-.444.2-.174.631-.174h.758v-.177q0-.31-.17-.47-.165-.161-.486-.161-.22 0-.424.076-.199.076-.338.203l-.106-.152q.165-.148.398-.229.233-.084.487-.084zm-.119 2.07q.275 0 .466-.127.195-.127.292-.369v-.415h-.754q-.326 0-.474.119-.144.119-.144.326 0 .216.161.343.161.123.453.123zm2.4.173q-.266 0-.508-.08-.24-.08-.376-.203l.097-.17q.135.115.347.19.216.077.449.077.334 0 .491-.11.16-.11.16-.305 0-.14-.088-.22-.085-.08-.212-.119-.127-.038-.351-.08-.263-.047-.423-.102-.161-.055-.276-.177-.114-.123-.114-.34 0-.262.216-.43.22-.174.622-.174.212 0 .42.059.207.06.338.156l-.097.17q-.136-.098-.31-.148-.173-.051-.355-.051-.309 0-.466.114-.156.114-.156.3 0 .149.089.233.089.08.216.123.13.038.364.085.258.046.414.102.161.05.271.169.11.118.11.326 0 .275-.228.44-.229.165-.644.165zm3.197-2.227-1.135 2.51q-.127.293-.296.416-.165.122-.394.122-.152 0-.288-.05-.131-.051-.224-.149l.106-.16q.169.173.41.173.161 0 .275-.089.115-.089.212-.305l.119-.266-.995-2.202h.224l.885 1.977.885-1.977zm2.645 2.071q-.08.076-.203.118-.118.038-.25.038-.287 0-.444-.156-.157-.161-.157-.445v-1.444h-.406v-.182h.406v-.482h.212v.482h.703v.182h-.703v1.423q0 .216.102.33.105.11.309.11.207 0 .343-.123zm1.372.156q-.313 0-.567-.144-.25-.144-.394-.398-.144-.258-.144-.58 0-.321.144-.575.144-.259.394-.403.254-.143.567-.143.313 0 .563.143.254.144.398.403.144.254.144.575 0 .322-.144.58-.144.254-.398.398-.25.144-.563.144zm0-.19q.254 0 .453-.119.203-.118.317-.33.119-.212.119-.483 0-.27-.119-.482-.114-.212-.317-.33-.199-.119-.453-.119t-.457.119q-.2.118-.318.33-.114.211-.114.482t.114.483q.119.212.318.33.203.119.457.119zm4.784-2.037v2.21h-.204v-.474q-.11.233-.326.364-.215.127-.508.127-.431 0-.677-.241-.245-.241-.245-.694v-1.292h.211v1.275q0 .372.19.567.191.195.538.195.373 0 .589-.233.22-.233.22-.627v-1.177zm1.456 2.227q-.267 0-.508-.08t-.377-.203l.098-.17q.135.115.347.19.216.077.448.077.335 0 .491-.11.161-.11.161-.305 0-.14-.089-.22-.084-.08-.211-.119-.127-.038-.352-.08-.262-.047-.423-.102-.16-.055-.275-.177-.114-.123-.114-.34 0-.262.215-.43.22-.174.623-.174.211 0 .419.059.207.06.339.156l-.098.17q-.135-.098-.309-.148-.173-.051-.355-.051-.31 0-.466.114-.157.114-.157.3 0 .149.09.233.088.08.215.123.131.038.364.085.258.046.415.102.16.05.27.169.111.118.111.326 0 .275-.229.44-.228.165-.643.165zm3.332-1.071H79.41q.008.258.131.462.123.199.33.309.212.11.474.11.216 0 .398-.077.187-.08.31-.232l.122.14q-.144.173-.364.266-.216.093-.47.093-.33 0-.588-.144-.259-.144-.407-.398-.144-.254-.144-.58 0-.321.136-.575.14-.259.38-.403.242-.143.543-.143.3 0 .537.143.242.14.377.394.14.254.14.576zm-1.05-.986q-.233 0-.42.106-.186.101-.3.292-.11.186-.127.423h1.693q-.012-.237-.127-.423-.114-.187-.3-.292-.186-.106-.42-.106z" style="font-size:4.23333px;font-family:'Montserrat Light';-inkscape-font-specification:'Montserrat Light, Normal';text-align:end;letter-spacing:0;word-spacing:0;text-anchor:end;stroke-width:.264583px;fill:#444;fill-opacity:1" transform="translate(4.192 4.192)"/></svg>